<svg xmlns="http://www.w3.org/2000/svg" width="512" height="128" version="1.0"><defs><mask id="a"><path fill="#fff" d="M0 0h512v128H0z"/><path d="m395.286 23.098-.134-.297-.147-.278-.159-.26-.172-.241-.187-.225-.2-.209-.217-.192-.23-.176-.248-.161-.263-.147-.28-.132-.298-.118-.3-.085-.304-.069-.309-.051-.312-.035-.315-.02-.316-.004-.317.01-.316.024-.314.039-.312.05-.307.064-.302.076-.035.807-.035.807-.035.807-.034.808-.035.807-.035.807-.034.807-.035.807-.035.808-.035.807-.034.807-.035.807.308-.002.308-.008.31-.013.308-.02.309-.027.307-.035.306-.043.305-.052.302-.062.299-.072.296-.083.292-.095.32-.13.315-.15.31-.168.302-.186.292-.204.28-.22.264-.236.247-.25.228-.266.207-.28.182-.292.156-.305.113-.32.088-.328.065-.337.043-.342.02-.347v-.349l-.021-.348-.04-.347-.06-.343-.078-.338-.095-.33-.107-.305zM371.66 84.529l-.009.494-.008.495-.01.495-.008.495-.008.494-.01.495-.008.495-.008.495-.01.494-.008.495-.009.495-.008.495.11.022.11.021.11.022.11.021.11.02.11.02.111.018.11.016.112.014.111.013.111.01.112.007.223.004.226-.004.225-.013.226-.023.226-.031.223-.041.22-.052.218-.062.213-.073.208-.084.202-.096.195-.107.117-.08.115-.084.11-.09.108-.097.103-.1.098-.107.093-.11.087-.114.081-.118.075-.122.068-.124.06-.128.062-.182.051-.186.04-.189.031-.192.02-.194.011-.196v-.195l-.008-.196-.017-.195-.027-.193-.035-.19-.044-.187-.047-.138-.055-.137-.062-.133-.07-.131-.075-.128-.083-.124-.088-.12-.093-.115-.1-.11-.103-.106-.108-.1-.112-.094-.065-.047-.067-.045-.068-.044-.069-.042-.07-.04-.07-.039-.072-.037-.073-.036-.073-.034-.074-.032-.074-.03-.076-.03-.254-.076-.258-.063-.263-.049-.266-.036-.268-.023-.269-.01h-.27l-.27.011-.269.023-.267.032-.265.042-.248.048zM376.599 74.778l-.041-.08-.044-.08-.046-.079-.049-.077-.05-.075-.054-.074-.055-.073-.058-.07-.059-.07-.061-.067-.063-.066-.065-.064-.15-.125-.158-.116-.164-.107-.17-.096-.176-.087-.181-.076-.186-.065-.19-.055-.192-.043-.195-.032-.198-.021-.199-.009-.17.007-.17.015-.169.024-.168.032-.168.038-.166.045-.165.05-.164.055-.162.059-.16.063-.16.065-.157.068-.013.482-.013.481-.013.482-.013.482-.013.481-.013.482-.013.482-.013.482-.013.481-.013.482-.013.482-.013.482.307-.006.308-.013.31-.02.31-.03.307-.041.307-.052.303-.063.299-.077.294-.09.287-.106.28-.121.272-.138.104-.064.1-.068.1-.07.098-.074.095-.076.093-.08.09-.082.088-.085.086-.087.082-.09.079-.093.075-.094.021-.032.021-.032.02-.033.02-.032.02-.033.019-.033.018-.034.019-.033.018-.034.017-.034.017-.034.017-.034.072-.195.061-.202.05-.206.037-.21.025-.213.012-.214-.001-.214-.015-.213-.029-.21-.043-.206-.058-.2-.07-.184zM269.148 77.358l-.014-.247-.022-.248-.03-.248-.039-.248-.048-.247-.057-.244-.067-.24-.078-.237-.09-.232-.1-.226-.113-.22-.125-.212-.067-.094-.07-.092-.073-.09-.077-.087-.079-.085-.082-.082-.086-.08-.088-.075-.09-.072-.094-.068-.096-.065-.098-.06-.192-.085-.2-.07-.206-.052-.212-.037-.216-.021-.218-.007-.219.008-.218.02-.215.035-.211.048-.206.059-.2.071-.131.064-.13.07-.127.075-.124.08-.122.085-.118.088-.116.093-.114.096-.11.099-.108.102-.105.104-.102.106-.254.304-.236.32-.218.333-.2.345-.186.355-.17.365-.155.372-.141.378-.128.382-.116.386-.104.387-.092.387.642-.06.642-.062.643-.06.642-.061.642-.06.642-.062.643-.06.642-.061.642-.06.643-.062.642-.06.642-.061v-.273l.001-.068V77.63l-.001-.068-.001-.068-.001-.068-.002-.065zM176.77 76.508l-.16.755-.16.756-.161.755-.16.755-.161.755-.16.755-.161.755-.161.755-.16.756-.161.755-.16.755-.161.755H178.75l-.165-.755-.165-.755-.165-.755-.165-.756-.165-.755-.165-.755-.165-.755-.165-.755-.165-.755-.165-.755-.164-.756-.157-.717zM360.767 26.908l-.02-.256-.027-.256-.036-.258-.046-.256-.056-.255-.067-.252-.078-.247-.09-.242-.103-.236-.116-.228-.13-.22-.144-.21-.06-.074-.064-.073-.065-.07-.068-.07-.07-.067-.07-.066-.074-.063-.075-.06-.077-.059-.079-.055-.08-.053-.082-.05-.214-.094-.225-.074-.233-.053-.24-.034-.244-.014-.245.003-.246.022-.243.039-.239.055-.232.071-.224.087-.213.1-.149.094-.146.099-.142.105-.138.11-.135.115-.13.12-.127.124-.123.128-.119.132-.115.134-.11.138-.107.14-.19.285-.179.294-.167.3-.156.308-.145.314-.135.318-.125.323-.115.327-.105.33-.097.331-.088.333-.08.335.643-.061.642-.06.642-.062.643-.06.642-.061.642-.06.643-.062.642-.06.642-.061.643-.06.642-.062.642-.06v-.627l-.002-.078-.002-.079-.003-.078-.002-.074zM260.74 27.03l-.015-.246-.022-.248-.03-.249-.039-.247-.048-.247-.057-.244-.067-.24-.078-.238-.089-.231-.1-.227-.113-.219-.126-.212-.067-.094-.07-.092-.073-.09-.077-.087-.079-.085-.082-.082-.086-.08-.088-.075-.09-.072-.094-.068-.096-.065-.098-.06-.214-.094-.225-.074-.233-.053-.24-.034-.243-.014-.246.003-.246.022-.243.039-.239.055-.232.071-.224.087-.212.1-.242.156-.23.17-.222.186-.21.198-.202.211-.19.221-.182.23-.17.239-.162.244-.152.25-.142.253-.133.256-.091.199-.088.2-.083.203-.08.204-.076.206-.073.207-.069.208-.065.21-.062.21-.06.211-.055.212-.053.213-.002.011-.003.012-.003.012-.002.011-.003.012-.003.012-.002.011-.003.012-.002.012-.003.011-.003.012-.002.012.642-.061.642-.06.643-.062.642-.06.642-.061.643-.06.642-.062.642-.06.642-.061.643-.06.642-.062.642-.06v-.273l.001-.068V27.303l-.001-.068-.001-.068-.001-.068-.002-.065zM155.459 23.098l-.134-.297-.146-.278-.16-.26-.172-.241-.186-.225-.201-.209-.216-.192-.231-.176-.247-.161-.264-.147-.28-.132-.298-.118-.299-.085-.304-.069-.31-.051-.312-.035-.315-.02-.316-.004-.317.01-.316.024-.314.039-.311.05-.308.064-.302.076-.035.807-.034.807-.035.807-.035.808-.035.807-.034.807-.035.807-.035.807-.034.808-.035.807-.035.807-.035.807.308-.002.309-.008.309-.013.309-.02.308-.027.308-.035.306-.043.304-.052.302-.062.3-.072.295-.083.292-.095.32-.13.315-.15.31-.168.302-.186.292-.204.28-.22.264-.236.248-.25.228-.266.206-.28.182-.292.157-.305.112-.32.089-.328.065-.337.042-.342.02-.347v-.349l-.02-.348-.041-.347-.06-.343-.078-.338-.095-.33-.106-.305zM119.232 27.88l-.143-.337-.168-.333-.19-.324-.212-.314-.233-.301-.251-.286-.27-.267-.285-.247-.3-.224-.314-.198-.326-.17-.337-.139-.42-.11-.423-.076-.424-.04-.423-.005-.42.03-.417.065-.41.098-.401.132-.392.166-.38.198-.366.231-.35.263-.159.145-.153.152-.147.158-.14.165-.135.17-.128.175-.122.18-.114.185-.107.189-.1.192-.093.195-.084.197-.224.738-.139.766-.054.784.028.789.11.782.192.762.27.73.35.688.426.632.502.563.577.484.65.392.477.179.488.124.495.07.497.018.496-.035.492-.086.482-.136.47-.185.453-.234.432-.282.409-.329.38-.374.17-.21.162-.218.151-.227.142-.233.132-.24.122-.246.112-.25.102-.255.091-.258.082-.261.07-.263.06-.264.05-.318.035-.32.021-.323.007-.324-.006-.325-.02-.325-.035-.324-.047-.322-.061-.318-.074-.315-.087-.31-.096-.29z"/></mask></defs><g stroke="#000" stroke-linecap="round" stroke-width="2"><path fill="gold" d="m389.691 93.342-.11.315-.125.311-.138.307-.151.301-.164.296-.176.289-.188.282-.197.274-.208.267-.218.257-.226.249-.235.238-.218.194-.223.187-.23.181-.234.175-.239.17-.243.162-.248.157-.251.15-.255.146-.257.139-.26.132-.263.127-.554.233-.562.216-.569.198-.575.182-.58.166-.585.151-.59.136-.591.122-.595.108-.596.096-.598.082-.597.072-.793.07-.794.057-.796.043-.797.03-.797.015-.798.002-.798-.012-.797-.026-.796-.04-.795-.054-.794-.068-.791-.083-.708-.092-.708-.105-.707-.12-.705-.136-.702-.153-.697-.17-.692-.188-.686-.209-.677-.229-.67-.25-.658-.274-.648-.297-.005-2.795-.004-2.795-.004-2.795-.005-2.794-.004-2.795-.004-2.795-.005-2.795-.004-2.795-.004-2.795-.005-2.795-.004-2.795-.004-2.795 1.04-.401 1.057-.368 1.07-.333 1.08-.3 1.092-.264 1.1-.23 1.107-.196 1.112-.161 1.116-.127 1.117-.092 1.117-.058 1.116-.022.959.02.965.048.969.082.968.116.963.154.955.193.943.235.926.279.907.326.883.376.855.427.824.48.866.642.782.705.694.765.605.818.513.868.42.912.325.95.228.984.127 1.011.026 1.035-.078 1.052-.184 1.064-.212.721-.264.68-.316.637-.366.593-.416.55-.465.505-.513.459-.56.413-.606.365-.652.317-.696.269-.74.219.475.14.472.161.467.182.461.2.452.222.443.24.43.26.418.28.402.297.385.317.367.335.346.353.51.636.45.67.391.701.33.728.268.75.206.77.142.785.079.796.013.804-.053.806-.12.807-.179.761zM351.224 87.17l-.278.812-.297.808-.317.802-.336.796-.358.787-.38.776-.403.763-.427.748-.451.732-.478.714-.504.693-.531.671-.169.192-.17.19-.174.188-.176.185-.179.183-.181.18-.184.178-.186.176-.188.172-.192.17-.193.166-.196.164-.3.226-.307.22-.312.212-.318.203-.324.196-.328.187-.334.179-.338.169-.342.16-.346.15-.35.14-.352.13-.68.192-.694.155-.705.119-.712.082-.719.046-.72.01-.72-.025-.718-.06-.712-.096-.704-.13-.692-.166-.678-.2-.365-.14-.362-.152-.357-.164-.353-.175-.347-.185-.342-.196-.336-.207-.329-.216-.322-.226-.314-.236-.307-.245-.298-.253-.3-.291-.29-.3-.281-.311-.273-.319-.263-.327-.254-.335-.244-.342-.234-.349-.225-.354-.215-.36-.204-.366-.195-.37-.287-.626-.267-.635-.25-.643-.23-.65-.214-.658-.197-.664-.18-.668-.166-.672-.15-.676-.137-.678-.123-.68-.11-.68-.215-1.788-.151-1.795-.09-1.802-.032-1.807.023-1.808.074-1.81.122-1.809.166-1.806.208-1.801.245-1.795.28-1.787.31-1.776 1.016.039 1.015.04 1.016.038 1.015.04 1.016.038 1.015.04 1.016.038 1.015.04 1.016.039 1.016.039 1.015.039 1.016.039-.31 1.83-.3 1.84-.285 1.85-.258 1.854-.224 1.859-.179 1.86-.126 1.86-.065 1.858.007 1.853.087 1.847.175 1.839.274 1.828.3 1.202.377.948.44.702.489.46.523.228h.543l.549-.22.54-.435.515-.642.479-.843.426-1.037.36-1.225.391-1.846.324-1.86.259-1.87.2-1.882.144-1.888.095-1.895.049-1.898.007-1.9-.028-1.9-.06-1.898-.088-1.894-.11-1.887H353.384l.048.606.044.607.04.607.036.607.032.607.028.608.024.608.02.608.016.608.012.608.008.609.004.608-.021 1.36-.054 1.364-.088 1.362-.12 1.362-.154 1.359-.187 1.354-.221 1.35-.256 1.343-.29 1.334-.325 1.326-.36 1.314-.376 1.237zM303.105 100.621l-.01-1.002-.008-1.003-.008-1.002-.01-1.003-.008-1.003-.009-1.002-.008-1.003-.009-1.002-.009-1.003-.008-1.002-.009-1.003-.009-1.002H297.011l-.03.95-.03.95-.03.951-.031.95-.03.951-.031.95-.03.95-.03.951-.031.95-.03.951-.031.95-.03.951H284.98l.082-3.05.083-3.052.082-3.05.083-3.052.082-3.05.083-3.052.082-3.05.083-3.052.082-3.05.082-3.052.083-3.05.082-3.052 1.033.048 1.033.048 1.033.047 1.033.048 1.033.048 1.033.048 1.033.047 1.033.048 1.033.048 1.033.048 1.032.047 1.033.048-.065 1.558-.065 1.558-.065 1.558-.065 1.558-.065 1.558-.065 1.558-.065 1.558-.065 1.558-.066 1.558-.065 1.559-.065 1.558-.065 1.558H303.365l.004-1.676.005-1.675.004-1.675.004-1.675.005-1.676.004-1.675.004-1.675.005-1.675.004-1.675.004-1.676.005-1.675.004-1.675.99.026.99.026.989.026.99.026.989.026.99.026.989.026.99.026.989.026.99.026.989.026.99.026.069 3.095.07 3.094.069 3.095.069 3.094.07 3.094.069 3.095.07 3.094.069 3.095.07 3.094.069 3.094.07 3.095.068 3.094-1.085.052-1.085.052-1.084.052-1.085.052-1.085.053-1.085.052-1.085.052-1.085.052-1.085.052-1.085.052-1.085.052-1.031.05zM279.256 83.487l-1.478.111-1.477.132-1.474.15-1.473.166-1.472.18-1.47.192-1.47.2-1.47.207-1.468.212-1.468.213-1.467.214-1.468.21.077.194.082.192.087.19.091.188.097.186.101.183.107.18.11.178.116.174.12.17.126.167.13.162.137.146.141.142.146.139.15.134.153.13.158.125.161.12.165.115.169.109.171.104.175.097.178.092.191.077.195.07.197.063.2.057.201.05.204.045.204.038.206.031.206.026.207.02.207.013.206.008.337-.015.336-.03.334-.047.333-.061.331-.074.33-.086.326-.096.325-.105.322-.112.32-.12.315-.124.313-.129.445-.197.44-.206.437-.215.433-.223.429-.23.425-.238.422-.244.418-.25.415-.256.411-.261.408-.266.405-.27-.104.986-.104.985-.104.985-.104.985-.105.986-.104.985-.104.985-.104.985-.104.985-.104.985-.105.986-.104.985-.304.221-.312.212-.318.202-.326.192-.33.183-.337.173-.342.164-.345.155-.35.146-.352.136-.355.128-.358.119-.844.236-.86.198-.873.161-.883.122-.889.08-.891.04-.892-.004-.888-.048-.882-.093-.872-.14-.859-.186-.842-.236-.23-.08-.228-.084-.228-.088-.226-.09-.225-.094-.223-.097-.223-.1-.22-.105-.219-.107-.217-.11-.215-.114-.214-.117-.302-.185-.299-.193-.294-.2-.29-.207-.285-.213-.28-.22-.275-.227-.27-.233-.264-.239-.258-.244-.253-.25-.247-.255-.315-.36-.304-.371-.294-.38-.284-.388-.273-.396-.262-.403-.252-.41-.24-.417-.23-.423-.219-.428-.207-.433-.197-.436-.264-.673-.243-.683-.22-.692-.199-.7-.177-.706-.155-.711-.134-.717-.112-.72-.091-.722-.07-.723-.049-.724-.027-.723.009-.97.043-.972.078-.973.113-.972.147-.968.183-.963.219-.954.255-.945.29-.931.328-.918.365-.9.401-.881.12-.233.123-.232.125-.23.128-.229.13-.227.134-.226.136-.224.139-.223.14-.22.145-.22.146-.217.149-.216.309-.41.321-.4.334-.394.345-.383.357-.373.369-.363.379-.35.39-.34.399-.325.409-.313.419-.297.427-.283.347-.201.351-.193.358-.183.362-.174.366-.166.371-.156.375-.146.378-.137.382-.127.384-.117.386-.106.389-.097.636-.117.643-.094.65-.071.652-.046.655-.022.656.005.654.032.65.06.646.088.64.118.63.148.62.178.397.146.394.159.389.172.384.184.378.198.37.21.365.222.356.234.348.245.339.257.328.268.318.28.281.277.273.287.264.295.255.304.247.31.239.319.23.324.22.33.213.336.204.34.195.345.187.349.299.64.273.653.25.664.224.674.2.682.178.69.156.696.133.7.113.704.092.706.073.706.053.706.02.496.011.496.004.497-.005.496-.013.497-.02.497-.027.496-.035.496-.042.495-.049.495-.055.493-.06.468zM243.403 97.184l-1.116.052-1.115.052-1.115.052-1.116.052-1.115.052-1.115.052-1.116.052-1.115.053-1.116.052-1.115.052-1.115.052-1.116.052.197-1.508.192-1.51.185-1.51.177-1.513.165-1.513.152-1.515.136-1.515.117-1.517.097-1.518.075-1.518.048-1.52.022-1.519-.006-.488-.016-.6-.028-.688-.043-.752-.062-.791-.081-.807-.104-.798-.13-.766-.158-.71-.189-.627-.222-.524-.258-.394-.121-.1-.133-.073-.142-.046-.148-.02-.153.001-.155.023-.156.042-.155.058-.15.073-.145.086-.137.098-.127.106-.29.35-.243.382-.2.409-.16.432-.128.45-.096.465-.071.475-.05.481-.032.484-.018.482-.01.475-.006.466.001.378.005.378.008.377.01.378.012.378.013.378.013.377.013.378.011.378.01.378.005.377.003.378-.008 1.343-.02 1.342-.03 1.342-.039 1.342-.048 1.341-.057 1.342-.064 1.34-.071 1.342-.077 1.34-.083 1.34-.088 1.34-.092 1.339-1.028.039-1.029.04-1.029.038-1.028.04-1.029.038-1.028.04-1.029.038-1.028.04-1.029.039-1.029.039-1.028.039-1.029.039.195-1.504.189-1.505.18-1.506.172-1.508.16-1.51.145-1.51.13-1.511.112-1.513.092-1.513.07-1.514.046-1.515.02-1.515-.003-.281-.004-.281-.008-.281-.009-.28-.011-.282-.014-.28-.016-.281-.017-.28-.02-.281-.02-.28-.022-.28-.024-.28-.027-.28-.028-.278-.03-.279-.034-.278-.035-.278-.04-.278-.041-.277-.045-.276-.05-.276-.053-.274-.058-.274-.063-.273-.041-.157-.05-.174-.057-.184-.066-.19-.075-.19-.084-.186-.093-.176-.103-.16-.112-.14-.124-.112-.133-.083-.145-.045-.064-.002-.065.001-.065.005-.066.007-.064.01-.065.014-.063.016-.064.018-.062.022-.06.023-.06.026-.059.029-.093.061-.09.068-.084.074-.08.079-.077.084-.073.087-.07.09-.065.095-.063.096-.06.097-.055.099-.054.1-.05.105-.047.107-.045.107-.042.11-.04.109-.04.11-.037.112-.035.111-.033.112-.033.113-.03.113-.03.113-.08.353-.071.356-.062.357-.054.358-.047.36-.04.362-.033.361-.029.363-.023.363-.02.363-.016.363-.013.362-.004.133-.003.132-.003.133-.002.132-.003.133-.003.133-.003.132-.004.133-.005.133-.005.132-.006.132-.008.133-.048 1.584-.048 1.584-.047 1.584-.048 1.584-.048 1.584-.048 1.584-.047 1.585-.048 1.584-.048 1.584-.048 1.584-.047 1.584-.048 1.584h-13.124l.28-2.94.279-2.943.274-2.943.265-2.944.25-2.945.233-2.946.21-2.948.182-2.948.151-2.95.115-2.95.075-2.952.03-2.953 1.032-.044 1.033-.043 1.033-.043 1.033-.044 1.033-.043 1.033-.044 1.033-.043 1.033-.043 1.033-.044 1.033-.043 1.033-.044 1.033-.043-.005.252-.004.252-.005.251-.004.252-.004.252-.005.251-.004.252-.004.252-.005.252-.004.251-.004.252-.005.252.406-.494.434-.488.46-.477.483-.459.506-.433.528-.402.547-.362.566-.318.583-.265.598-.206.611-.14.624-.068.467.001.476.02.48.04.48.063.476.086.47.112.458.139.444.169.424.2.402.234.376.268.346.306.167.185.16.193.152.2.144.205.136.212.13.216.122.22.117.225.11.227.103.23.098.232.093.233.282-.304.286-.301.291-.298.297-.293.302-.287.309-.28.315-.271.323-.261.33-.25.34-.237.348-.223.357-.209.194-.099.197-.094.2-.09.202-.085.204-.08.206-.075.208-.07.209-.066.21-.06.212-.054.213-.05.214-.043.393-.057.393-.042.395-.028.395-.012.395.002.394.018.394.032.392.047.39.062.39.076.385.091.383.106.286.106.283.117.28.128.274.137.27.147.266.157.26.165.255.174.249.181.242.19.236.195.23.202.234.238.226.246.219.253.21.26.203.268.195.274.187.279.179.284.172.288.164.293.156.296.149.299.332.788.296.803.26.817.229.828.198.837.171.846.146.852.122.856.102.859.083.86.067.858.053.857.059 1.606.03 1.606.005 1.608-.02 1.607-.04 1.608-.06 1.608-.078 1.607-.093 1.607-.105 1.606-.116 1.605-.125 1.603-.124 1.523zM135.42 100.176l-1.667-.562-1.567-.697-1.462-.83-1.353-.955-1.24-1.076-1.122-1.193-1-1.304-.874-1.41-.743-1.511-.608-1.607-.468-1.698-.326-1.783-.107-1.398-.024-1.394.056-1.387.137-1.375.217-1.362.296-1.345.374-1.325.451-1.301.528-1.275.604-1.245.678-1.212.753-1.175.73-.956.795-.917.857-.873.912-.826.963-.774 1.007-.718 1.047-.656 1.082-.592 1.11-.522 1.135-.449 1.153-.37 1.166-.287 1.12-.18 1.14-.135 1.153-.085 1.162-.032 1.164.024 1.16.083 1.148.146 1.131.213 1.109.283 1.08.357 1.043.433 1.003.513-.06.83-.062.828-.06.829-.061.829-.06.829-.062.829-.06.829-.061.829-.061.829-.06.829-.061.829-.061.828-.183-.065-.183-.062-.184-.06-.185-.059-.186-.055-.186-.053-.188-.051-.187-.048-.189-.046-.189-.044-.189-.04-.19-.04-.558-.09-.563-.078-.567-.063-.568-.047-.57-.03-.571-.012-.57.006-.569.027-.565.049-.563.07-.557.094-.552.119-.415.12-.411.14-.408.154-.401.172-.396.188-.387.204-.378.22-.367.236-.356.25-.343.267-.33.281-.313.297-.575.677-.503.724-.428.764-.352.797-.276.825-.198.846-.12.86-.038.87.042.873.125.87.208.86.293.843.182.378.21.37.236.359.262.345.284.33.306.31.325.288.342.263.358.237.371.207.384.174.394.14.453.098.468.07.477.037.483.007.484-.026.48-.058.474-.091.463-.126.447-.16.427-.195.404-.231.375-.268.009-.17.009-.168.008-.17.009-.169.009-.17.008-.168.009-.17.009-.169.008-.17.009-.168.009-.17.008-.169-.52-.009-.521-.008-.521-.009-.52-.009-.522-.008-.52-.009-.521-.009-.521-.008-.52-.009-.522-.009-.52-.008-.521-.01.026-.65.026-.651.026-.651.026-.651.026-.651.026-.651.026-.651.026-.651.026-.651.026-.651.026-.651.026-.651 1.298-.041 1.298-.04 1.297-.036 1.298-.036 1.298-.035 1.298-.035 1.297-.035 1.298-.037 1.298-.04 1.297-.04 1.298-.045 1.297-.049.026 1.459.026 1.458.026 1.458.026 1.458.026 1.458.026 1.459.026 1.458.026 1.458.026 1.458.027 1.459.026 1.458.026 1.458-1.186 1.261-1.35 1.115-1.492.968-1.61.823-1.704.676-1.776.53-1.825.384-1.85.238-1.85.093-1.83-.054-1.786-.198-1.631-.327zM452.859 45.545l-1.504 1.294-1.703 1.019-1.87.76-2.005.517-2.105.293-2.175.086-2.21-.104-2.212-.277-2.181-.431-2.119-.57-2.022-.69-1.893-.794.096-.85.095-.85.095-.852.096-.85.095-.85.096-.851.095-.851.096-.85.095-.851.096-.851.095-.85.096-.851.867.474.896.43.92.385.944.34.96.294.976.248.986.2.994.155.998.106.998.059.995.01.988-.04.235-.023.24-.032.243-.041.243-.053.24-.064.233-.079.225-.092.213-.109.2-.125.18-.144.161-.164.138-.184.056-.118.046-.125.037-.13.026-.134.016-.137.005-.138-.006-.138-.016-.135-.029-.132-.04-.127-.051-.12-.064-.113-.104-.127-.115-.117-.125-.108-.134-.098-.141-.09-.148-.082-.153-.074-.157-.067-.16-.06-.16-.054-.161-.048-.16-.043-.315-.066-.317-.055-.318-.045-.32-.035-.322-.027-.322-.02-.323-.015-.323-.01-.324-.006-.323-.005-.323-.003-.322-.004-.568-.037-.57-.064-.571-.091-.568-.12-.562-.147-.554-.175-.544-.203-.53-.232-.515-.26-.496-.287-.474-.316-.45-.345-.344-.32-.326-.34-.31-.358-.291-.376-.274-.39-.254-.405-.236-.416-.215-.426-.195-.435-.174-.442-.153-.448-.13-.45-.112-.543-.086-.548-.062-.554-.038-.557-.014-.56.009-.56.032-.56.055-.558.077-.554.1-.55.121-.542.143-.535.15-.42.164-.416.18-.411.196-.405.209-.399.222-.391.235-.384.248-.376.26-.368.27-.358.281-.35.291-.338.615-.603.656-.565.694-.527.727-.487.756-.447.782-.407.804-.365.82-.324.835-.28.843-.239.85-.194.85-.15 1.068-.11 1.08-.066 1.086-.022 1.09.022 1.09.068 1.085.116 1.077.165 1.066.214 1.051.266 1.033.318 1.01.371.983.426-.083.881-.082.881-.083.881-.082.882-.083.88-.082.882-.083.88-.082.882-.082.88-.083.882-.082.88-.083.882-1.287-.39-1.453-.37-1.556-.327-1.597-.265-1.574-.182-1.49-.078-1.341.046-1.132.19-.858.358-.524.544-.124.751.335.98.26.293.35.228.425.168.484.118.53.073.56.037.574.007.574-.014.56-.029.529-.036.485-.036.424-.028 2.308.13 2.03.593 1.737.997 1.436 1.34 1.12 1.621.793 1.845.453 2.006.102 2.108-.262 2.15-.638 2.132-1.026 2.052-1.354 1.818zM421.729 23.42l-.668.023-.669.021-.668.022-.669.022-.668.021-.668.022-.669.022-.668.021-.668.022-.669.022-.668.021-.668.022-.135-1.32-.134-1.318-.135-1.32-.135-1.32-.134-1.319-.135-1.319-.134-1.32-.135-1.319-.134-1.319-.135-1.32-.134-1.319-.135-1.319 1.046-.022 1.046-.021 1.046-.022 1.046-.022 1.046-.022 1.046-.021 1.046-.022 1.046-.022 1.046-.021 1.045-.022 1.046-.022 1.046-.021-.243 1.319-.243 1.32-.243 1.319-.243 1.319-.243 1.32-.243 1.319-.243 1.319-.243 1.32-.243 1.319-.243 1.32-.243 1.318-.231 1.254zM406.728 29.323l-.114.334-.125.331-.136.328-.145.323-.156.32-.166.314-.176.31-.184.303-.194.297-.203.29-.212.284-.22.275-.264.295-.273.287-.282.278-.29.27-.296.264-.304.256-.31.25-.316.241-.32.236-.325.228-.328.223-.332.216.516.92.517.92.516.92.517.92.516.92.517.92.516.92.517.92.516.92.517.92.516.921.517.92-.977.191-.976.191-.977.19-.976.192-.977.19-.976.192-.977.19-.976.192-.977.19-.976.192-.977.19-.976.192-.335-.925-.334-.924-.334-.925-.334-.924-.334-.925-.335-.924-.334-.924-.334-.925-.334-.924-.334-.925-.334-.924-.335-.924-.269.008-.269.009-.269.009-.269.008-.269.009-.269.009-.27.008-.268.009-.27.009-.268.008-.27.01-.269.008-.039.902-.039.903-.039.903-.039.903-.039.902-.039.903-.039.903-.039.902-.039.903-.04.903-.038.903-.04.902h-11.196l.032-1.545.047-2.317.06-2.935.07-3.397.077-3.706.082-3.86.085-3.86.086-3.707.083-3.397.078-2.933.071-2.317.062-1.544 1.197-.411 1.215-.364 1.229-.317 1.242-.275 1.252-.232 1.26-.193 1.268-.156 1.272-.12 1.274-.086 1.274-.056 1.272-.025 1.269.001.52.024.522.037.52.048.521.061.519.074.517.085.514.099.512.11.509.125.505.136.5.15.496.162.489.193.484.208.48.225.471.241.464.257.456.272.445.288.435.303.422.318.41.333.395.347.38.363.201.22.197.225.193.23.187.233.182.237.178.242.172.245.168.248.162.252.157.255.151.257.147.26.359.8.3.829.24.855.185.874.129.89.074.9.02.904-.03.904-.082.897-.131.887-.18.87-.215.808zM181.25 99.423l-.13-.49-.131-.49-.13-.491-.13-.49-.13-.49-.13-.491-.131-.49-.13-.491-.13-.49-.13-.49-.13-.491-.131-.49h-5.937l-.109.49-.108.49-.109.49-.108.491-.109.49-.108.49-.109.491-.108.49-.109.491-.108.49-.109.49-.108.491-1.107-.108-1.106-.109-1.107-.108-1.107-.109-1.107-.108-1.106-.109-1.107-.108-1.107-.109-1.106-.108-1.107-.109-1.107-.108-1.106-.109.863-2.89.864-2.89.864-2.891.863-2.89.864-2.89.864-2.891.863-2.89.864-2.891.863-2.89.864-2.89.864-2.891.863-2.89 1.207-.062 1.207-.06 1.206-.061 1.207-.06 1.206-.062 1.207-.06 1.206-.061 1.207-.06 1.206-.062 1.207-.06 1.206-.061 1.207-.06.846 2.92.846 2.92.847 2.922.846 2.92.846 2.921.846 2.92.847 2.922.846 2.92.846 2.921.847 2.921.846 2.92.846 2.922-1.076.139-1.076.138-1.077.14-1.076.138-1.076.14-1.077.138-1.076.139-1.076.139-1.077.139-1.076.139-1.076.138-1.023.132zM370.88 33.16l-1.478.11-1.476.133-1.474.15-1.473.166-1.472.18-1.471.192-1.47.2-1.469.207-1.468.212-1.468.213-1.468.213-1.467.211.155.371.177.366.2.358.22.349.24.336.26.323.276.306.294.287.31.267.324.244.34.219.352.19.191.078.195.07.197.063.2.057.201.05.203.045.205.038.206.031.206.026.207.02.207.013.206.007.319-.013.317-.028.317-.042.315-.056.314-.067.311-.078.31-.088.308-.096.306-.103.303-.11.3-.113.297-.118.464-.2.459-.21.455-.22.45-.228.447-.237.442-.245.439-.252.435-.259.43-.265.428-.27.424-.276.42-.28-.104.986-.104.985-.105.985-.104.985-.104.985-.104.986-.104.985-.104.985-.105.985-.104.985-.104.985-.104.986-.29.21-.296.203-.302.193-.309.185-.314.176-.319.167-.323.16-.328.15-.33.142-.335.134-.336.126-.339.118-.858.252-.875.213-.89.173-.899.131-.907.09-.91.045h-.91l-.908-.045-.9-.092-.89-.14-.877-.19-.86-.24-.229-.08-.228-.085-.228-.087-.226-.09-.225-.094-.224-.098-.222-.1-.22-.104-.22-.107-.216-.11-.216-.114-.213-.117-.597-.378-.58-.41-.56-.438-.541-.468-.52-.493-.498-.517-.475-.54-.451-.558-.427-.576-.401-.592-.375-.605-.347-.617-.34-.701-.312-.716-.285-.73-.259-.74-.232-.75-.206-.76-.18-.765-.155-.772-.13-.775-.104-.778-.08-.779-.056-.778-.021-.967.014-.97.048-.973.084-.972.12-.97.154-.965.19-.959.224-.95.26-.94.297-.925.331-.912.368-.894.335-.696.364-.686.391-.675.419-.66.445-.644.471-.626.497-.604.52-.582.546-.556.57-.528.591-.499.614-.466.274-.18.277-.176.282-.169.285-.163.289-.158.292-.15.295-.146.298-.14.3-.133.303-.128.305-.121.307-.115.644-.2.653-.17.66-.143.666-.115.67-.087.675-.058.675-.03.677-.002.675.028.673.055.669.085.664.113.371.088.37.1.367.11.364.12.36.133.358.142.352.153.348.163.342.173.336.183.33.193.323.203.443.322.429.344.414.365.398.383.383.4.367.416.35.431.334.444.316.456.298.466.28.474.261.483.49 1.085.416 1.119.347 1.147.28 1.17.218 1.19.158 1.204.101 1.213.047 1.218-.003 1.218-.05 1.212-.096 1.203-.13 1.13zM336.434 23.994l-.647.026-.647.026-.646.026-.647.026-.647.026-.646.026-.647.026-.647.026-.646.026-.647.026-.647.026-.646.026-.078 2.014-.078 2.014-.079 2.013-.078 2.014-.078 2.014-.078 2.014-.078 2.013-.078 2.014-.078 2.014-.078 2.014-.078 2.013-.079 2.014-.915.048-.916.048-.916.047-.916.048-.915.048-.916.048-.916.047-.915.048-.916.048-.916.048-.916.047-.915.048-.083-2.014-.082-2.013-.083-2.014-.082-2.014-.083-2.014-.082-2.013-.083-2.014-.082-2.014-.083-2.014-.082-2.013-.082-2.014-.083-2.014-.647.035-.646.034-.647.035-.647.035-.646.035-.647.034-.647.035-.646.035-.647.035-.647.034-.646.035-.647.035.026-1.025.026-1.024.026-1.024.026-1.024.026-1.024.026-1.025.026-1.024.027-1.024.026-1.024.026-1.025.026-1.024.026-1.024 2.365-.004 2.365-.005 2.366-.004 2.365-.004 2.365-.005 2.365-.004 2.366-.004 2.365-.005 2.365-.004 2.366-.005 2.365-.004 2.365-.004-.022.92-.021.92-.022.92-.022.92-.021.92-.022.92-.022.92-.021.92-.022.92-.022.92-.022.92-.02.875zM302.801 41.138l-.12.332-.13.328-.14.325-.147.322-.156.318-.164.314-.173.31-.18.304-.188.3-.195.295-.203.289-.21.283-.219.258-.226.253-.233.246-.24.241-.247.235-.252.228-.258.222-.264.215-.268.209-.273.202-.278.195-.282.188-.77.432-.799.387-.821.343-.842.3-.858.258-.872.218-.883.18-.89.142-.895.106-.895.071-.892.038-.888.006-.392-.02-.391-.031-.39-.044-.39-.055-.389-.064-.387-.074-.386-.081-.384-.089-.384-.094-.381-.1-.38-.104-.379-.107-.564-.17-.562-.18-.56-.186-.557-.194-.555-.201-.552-.208-.55-.215-.547-.221-.545-.228-.542-.233-.54-.24-.536-.244.096-.85.095-.85.096-.852.095-.85.096-.85.095-.851.096-.851.095-.85.096-.851.095-.851.096-.85.095-.851.867.474.896.43.921.385.943.34.96.294.976.248.987.2.994.155.997.106.998.059.995.01.988-.04.39-.048.386-.08.374-.108.355-.14.327-.166.291-.196.246-.223.193-.249.132-.275.063-.301-.015-.325-.1-.35-.23-.338-.324-.28-.404-.229-.467-.181-.517-.14-.551-.105-.57-.074-.575-.05-.564-.03-.539-.015-.497-.008-.443-.005-.568-.037-.57-.064-.57-.091-.568-.12-.563-.147-.554-.175-.544-.203-.53-.232-.514-.26-.496-.287-.475-.316-.45-.345-1.329-1.407-.984-1.548-.654-1.655-.34-1.729-.04-1.768.246-1.774.517-1.747.772-1.685 1.013-1.59 1.24-1.462 1.451-1.3 1.648-1.103 1.397-.657 1.468-.532 1.524-.409 1.568-.287 1.597-.169 1.615-.052 1.616.062 1.607.175 1.582.284 1.544.392 1.493.498 1.429.6-.083.881-.082.881-.082.881-.083.882-.082.88-.083.882-.082.88-.083.882-.082.88-.083.882-.082.88-.083.882-.557-.18-.561-.173-.565-.162-.568-.152-.571-.14-.574-.128-.576-.115-.579-.1-.58-.087-.582-.07-.583-.053-.584-.035-.42-.007-.48.001-.524.015-.554.032-.569.051-.569.076-.554.103-.526.136-.48.17-.422.21-.348.252-.26.299-.052.103-.044.106-.033.109-.025.11-.015.113-.006.113.003.113.013.113.022.111.031.11.041.108.05.104.256.29.344.225.416.168.476.117.52.075.548.039.563.01.564-.012.548-.027.52-.034.476-.035.418-.028.518-.017.515.008.51.033.506.058.5.083.495.108.489.132.482.156.475.181.469.206.46.229.453.254.256.17.252.178.246.188.24.197.233.204.226.213.22.22.21.227.204.234.194.24.185.248.175.252.167.282.156.287.147.294.137.298.128.304.117.308.109.31.098.315.09.317.079.32.07.32.061.321.071.565.049.569.027.571.005.574-.015.574-.037.574-.057.572-.078.57-.097.565-.118.561-.137.555-.148.52zM270.847 33.16l-1.478.11-1.477.133-1.474.15-1.473.166-1.472.18-1.47.192-1.47.2-1.47.207-1.468.212-1.468.213-1.467.213-1.468.211.077.194.082.191.087.19.092.189.096.185.101.184.107.18.11.177.116.175.12.17.126.167.13.162.137.146.141.142.146.138.15.135.153.13.158.124.162.12.165.115.168.11.172.104.174.097.178.092.093.038.094.037.094.036.095.035.095.033.096.032.096.03.097.03.097.027.097.026.098.025.098.024.105.018.106.016.105.015.106.014.106.012.107.011.106.01.107.008.106.007.107.006.107.004.106.003.337-.014.336-.03.334-.047.333-.061.331-.074.33-.086.326-.096.325-.105.322-.113.32-.119.315-.124.313-.129.445-.197.44-.206.437-.215.433-.223.429-.23.425-.238.422-.244.418-.25.415-.256.411-.261.408-.266.405-.27-.104.986-.104.985-.104.985-.104.985-.105.985-.104.986-.104.985-.104.985-.104.985-.104.985-.105.985-.104.986-1.555 1.012-1.673.795-1.764.58-1.829.367-1.865.158-1.875-.051-1.857-.257-1.812-.461-1.74-.662-1.642-.861-1.515-1.059-1.362-1.253-.738-.886-.675-.942-.612-.993-.55-1.036-.489-1.073-.427-1.104-.367-1.129-.307-1.147-.248-1.159-.19-1.164-.132-1.164-.074-1.156-.006-1 .032-1.005.068-1.007.106-1.005.143-1.002.181-.996.22-.987.258-.977.296-.964.335-.949.375-.93.414-.91.362-.68.39-.67.419-.656.446-.641.472-.623.497-.603.523-.58.547-.555.57-.527.594-.498.616-.465.637-.43 1.78-.914 1.837-.659 1.867-.406 1.873-.157 1.853.087 1.808.33 1.737.57 1.641.803 1.52 1.037 1.375 1.265 1.202 1.49 1.005 1.712.459 1.071.39 1.101.324 1.127.262 1.148.202 1.165.146 1.177.092 1.186.04 1.19-.006 1.189-.053 1.185-.094 1.175-.127 1.105zM230.567 48.575l-1.233.026-1.232.026-1.233.026-1.232.026-1.233.026-1.232.027-1.233.026-1.232.026-1.233.026-1.233.026-1.232.026-1.233.026-.264-1.471-.265-1.472-.265-1.471-.265-1.471-.264-1.471-.265-1.472-.265-1.471-.265-1.471-.264-1.471-.265-1.472-.265-1.471-.264-1.471-.265 1.358-.265 1.359-.265 1.358-.264 1.358-.265 1.359-.265 1.358-.265 1.359-.264 1.358-.265 1.358-.265 1.359-.265 1.358-.264 1.359-1.233.043-1.232.043-1.233.044-1.233.043-1.232.044-1.233.043-1.232.044-1.233.043-1.232.043-1.233.044-1.232.043-1.233.044-.512-2.791-.512-2.79-.512-2.791-.512-2.79-.513-2.792-.512-2.79-.512-2.79-.512-2.791-.512-2.79-.512-2.792-.512-2.79-.512-2.79 1.076-.096 1.076-.096 1.077-.095 1.076-.096 1.076-.095 1.077-.096 1.076-.095 1.076-.096 1.076-.095 1.077-.096 1.076-.095 1.076-.095.217 1.714.217 1.714.217 1.714.217 1.715.217 1.714.217 1.714.217 1.715.217 1.714.217 1.714.217 1.714.217 1.715.217 1.714.291-1.584.29-1.584.292-1.584.29-1.584.291-1.584.291-1.585.29-1.584.292-1.584.29-1.584.291-1.584.29-1.584.292-1.584h10.155l.339 1.606.338 1.605.339 1.606.338 1.606.339 1.606.338 1.606.339 1.605.338 1.606.339 1.606.338 1.606.339 1.606.338 1.605.174-1.822.174-1.823.173-1.823.174-1.823.173-1.823.174-1.822.174-1.823.173-1.823.174-1.823.173-1.823.174-1.822.174-1.823 1.072.095 1.072.096 1.072.095 1.072.096 1.072.095 1.071.096 1.072.095 1.072.096 1.072.095 1.072.096 1.072.095 1.072.096-.507 2.92-.508 2.921-.508 2.921-.508 2.92-.508 2.922-.507 2.92-.508 2.921-.508 2.921-.508 2.92-.507 2.922-.508 2.92-.483 2.775zM181.902 23.42l-.668.023-.668.021-.669.022-.668.022-.668.021-.669.022-.668.022-.669.021-.668.022-.668.022-.669.021-.668.022-.135-1.32-.134-1.318-.135-1.32-.134-1.32-.135-1.319-.134-1.319-.135-1.32-.134-1.319-.135-1.319-.134-1.32-.135-1.319-.134-1.319 1.046-.022 1.045-.021 1.046-.022 1.046-.022 1.046-.022 1.046-.021 1.046-.022 1.046-.022 1.046-.021 1.046-.022 1.046-.022 1.046-.021-.243 1.319-.243 1.32-.243 1.319-.243 1.319-.243 1.32-.243 1.319-.244 1.319-.243 1.32-.243 1.319-.243 1.32-.243 1.318-.23 1.254zM167.237 27.973l-.102.456-.12.453-.137.45-.155.445-.173.44-.19.432-.207.424-.224.415-.24.405-.257.393-.273.38-.289.366-.264.295-.273.286-.281.28-.29.27-.297.263-.304.256-.31.25-.315.241-.32.235-.326.23-.328.222-.332.216.517.92.516.92.517.92.516.92.517.92.516.92.517.92.516.92.517.92.516.92.516.921.517.92-.977.191-.976.191-.977.19-.976.192-.977.19-.976.192-.977.19-.976.192-.977.19-.976.192-.977.19-.976.192-.334-.925-.334-.924-.335-.925-.334-.924-.334-.925-.334-.924-.334-.924-.334-.925-.335-.924-.334-.925-.334-.924-.334-.924-.27.008-.268.009-.27.009-.268.008-.27.009-.269.009-.269.008-.269.009-.269.009-.269.008-.269.01-.27.008-.038.902-.04.903-.038.903-.04.903-.038.902-.04.903-.038.903-.04.902-.039.903-.039.903-.039.903-.039.902h-11.197l.033-1.545.047-2.317.06-2.935.07-3.397.076-3.706.083-3.86.085-3.86.085-3.707.083-3.397.078-2.933.072-2.317.061-1.544 1.198-.411 1.214-.364 1.23-.317 1.241-.275 1.252-.232 1.261-.193 1.268-.156 1.271-.12 1.274-.086 1.274-.056 1.273-.025 1.268.001.673.034.675.054.674.075.673.096.67.118.666.14.66.162.653.185.645.209.636.231.625.256.612.28.265.14.262.147.26.15.257.155.254.16.251.165.248.17.245.174.24.18.238.183.234.188.23.193.404.39.39.411.372.429.356.445.336.462.316.476.295.488.273.501.249.512.224.52.199.53.172.535.127.564.105.57.082.575.06.579.04.581.02.584-.001.584-.021.583-.04.583-.059.58-.076.575-.09.542zM128.38 39.668l-.236.347-.244.342-.251.337-.26.33-.267.326-.274.319-.282.312-.29.306-.296.299-.303.29-.31.284-.315.276-.427.334-.439.321-.45.307-.46.292-.47.278-.48.263-.486.248-.495.232-.5.216-.507.2-.512.185-.516.167-.674.174-.684.145-.691.117-.698.088-.701.06-.705.032-.705.004-.704-.024-.702-.052-.697-.08-.69-.107-.684-.135-.464-.12-.461-.132-.459-.145-.455-.157-.45-.17-.447-.181-.441-.193-.436-.205-.43-.216-.423-.228-.416-.238-.41-.25-.435-.298-.428-.313-.418-.326-.408-.34-.398-.353-.387-.365-.376-.377-.363-.388-.352-.399-.338-.409-.325-.418-.31-.427-.374-.581-.35-.598-.328-.613-.304-.627-.28-.64-.256-.65-.23-.66-.205-.667-.178-.673-.152-.68-.124-.681-.097-.684-.062-.857-.022-.864.02-.867.059-.869.099-.867.138-.862.176-.855.215-.846.252-.833.29-.818.326-.8.362-.78.256-.475.27-.468.284-.461.297-.453.31-.446.324-.436.336-.426.348-.417.36-.405.37-.394.383-.382.393-.37.527-.44.548-.42.567-.398.584-.376.6-.352.615-.327.627-.302.639-.275.648-.247.656-.218.664-.189.668-.158.908-.142.919-.094.927-.047h.931l.934.046.931.092.927.135.918.179.906.22.892.264.874.304.853.344.314.152.312.159.308.165.305.17.302.178.299.183.294.189.29.195.287.201.282.207.277.213.271.219.318.29.31.299.303.307.294.317.286.324.277.332.268.34.258.346.25.353.24.359.23.364.22.37.701 1.484.562 1.537.423 1.58.282 1.61.144 1.63.006 1.637-.132 1.631-.27 1.616-.407 1.587-.544 1.548-.68 1.496-.774 1.362zM91.113 47.638l-1.137.104-1.137.104-1.138.104-1.137.105-1.137.104-1.137.104-1.137.104-1.137.104-1.137.104-1.137.104-1.137.105-1.137.104-.608-1.576-.607-1.575-.608-1.575-.608-1.576-.607-1.575-.608-1.576-.607-1.575-.608-1.576L72 34.71l-.608-1.575-.608-1.576-.607-1.575-.096 1.606-.095 1.605-.096 1.606-.095 1.606-.096 1.606-.095 1.606-.096 1.605-.095 1.606-.096 1.606-.095 1.606-.096 1.606-.095 1.605H57.313l.078-3.077.078-3.077.156-6.154.157-6.154.078-3.077.078-3.077.078-3.077.078-3.077.078-3.077.078-3.077 1.085-.052 1.085-.052 1.085-.052 1.085-.052 1.085-.053 1.085-.052 1.085-.052 1.085-.052 1.085-.052 1.085-.052 1.085-.052 1.085-.052.751 1.562.75 1.563.752 1.562.75 1.562.751 1.563.751 1.562.751 1.563.75 1.562.752 1.562.75 1.563.751 1.562.751 1.563.035-1.476.035-1.476.034-1.475.035-1.476.035-1.475.034-1.476.035-1.476.035-1.475.035-1.476.034-1.475.035-1.476.035-1.476 1.024-.034 1.024-.035 1.024-.035 1.025-.034 1.024-.035 1.024-.035 1.024-.035 1.025-.034 1.024-.035 1.024-.035 1.024-.034 1.025-.035-.157 2.942-.156 2.943-.156 2.942-.156 2.943-.157 2.942-.156 2.943-.156 2.942-.156 2.943-.157 2.942-.156 2.943-.156 2.942-.148 2.796z" mask="url(#a)"/><path fill="none" d="m395.286 23.098-.134-.297-.147-.278-.159-.26-.172-.241-.187-.225-.2-.209-.217-.192-.23-.176-.248-.161-.263-.147-.28-.132-.298-.118-.3-.085-.304-.069-.309-.051-.312-.035-.315-.02-.316-.004-.317.01-.316.024-.314.039-.312.05-.307.064-.302.076-.035.807-.035.807-.035.807-.034.808-.035.807-.035.807-.034.807-.035.807-.035.808-.035.807-.034.807-.035.807.308-.002.308-.008.31-.013.308-.02.309-.027.307-.035.306-.043.305-.052.302-.062.299-.072.296-.083.292-.095.32-.13.315-.15.31-.168.302-.186.292-.204.28-.22.264-.236.247-.25.228-.266.207-.28.182-.292.156-.305.113-.32.088-.328.065-.337.043-.342.02-.347v-.349l-.021-.348-.04-.347-.06-.343-.078-.338-.095-.33-.107-.305zM371.66 84.529l-.009.494-.008.495-.01.495-.008.495-.008.494-.01.495-.008.495-.008.495-.01.494-.008.495-.009.495-.008.495.11.022.11.021.11.022.11.021.11.02.11.02.111.018.11.016.112.014.111.013.111.01.112.007.223.004.226-.004.225-.013.226-.023.226-.031.223-.041.22-.052.218-.062.213-.073.208-.084.202-.096.195-.107.117-.08.115-.084.11-.09.108-.097.103-.1.098-.107.093-.11.087-.114.081-.118.075-.122.068-.124.06-.128.062-.182.051-.186.04-.189.031-.192.02-.194.011-.196v-.195l-.008-.196-.017-.195-.027-.193-.035-.19-.044-.187-.047-.138-.055-.137-.062-.133-.07-.131-.075-.128-.083-.124-.088-.12-.093-.115-.1-.11-.103-.106-.108-.1-.112-.094-.065-.047-.067-.045-.068-.044-.069-.042-.07-.04-.07-.039-.072-.037-.073-.036-.073-.034-.074-.032-.074-.03-.076-.03-.254-.076-.258-.063-.263-.049-.266-.036-.268-.023-.269-.01h-.27l-.27.011-.269.023-.267.032-.265.042-.248.048zM376.599 74.778l-.041-.08-.044-.08-.046-.079-.049-.077-.05-.075-.054-.074-.055-.073-.058-.07-.059-.07-.061-.067-.063-.066-.065-.064-.15-.125-.158-.116-.164-.107-.17-.096-.176-.087-.181-.076-.186-.065-.19-.055-.192-.043-.195-.032-.198-.021-.199-.009-.17.007-.17.015-.169.024-.168.032-.168.038-.166.045-.165.05-.164.055-.162.059-.16.063-.16.065-.157.068-.013.482-.013.481-.013.482-.013.482-.013.481-.013.482-.013.482-.013.482-.013.481-.013.482-.013.482-.013.482.307-.006.308-.013.31-.02.31-.03.307-.041.307-.052.303-.063.299-.077.294-.09.287-.106.28-.121.272-.138.104-.064.1-.068.1-.07.098-.074.095-.076.093-.08.09-.082.088-.085.086-.087.082-.09.079-.093.075-.094.021-.032.021-.032.02-.033.02-.032.02-.033.019-.033.018-.034.019-.033.018-.034.017-.034.017-.034.017-.034.072-.195.061-.202.05-.206.037-.21.025-.213.012-.214-.001-.214-.015-.213-.029-.21-.043-.206-.058-.2-.07-.184zM269.148 77.358l-.014-.247-.022-.248-.03-.248-.039-.248-.048-.247-.057-.244-.067-.24-.078-.237-.09-.232-.1-.226-.113-.22-.125-.212-.067-.094-.07-.092-.073-.09-.077-.087-.079-.085-.082-.082-.086-.08-.088-.075-.09-.072-.094-.068-.096-.065-.098-.06-.192-.085-.2-.07-.206-.052-.212-.037-.216-.021-.218-.007-.219.008-.218.02-.215.035-.211.048-.206.059-.2.071-.131.064-.13.07-.127.075-.124.08-.122.085-.118.088-.116.093-.114.096-.11.099-.108.102-.105.104-.102.106-.254.304-.236.32-.218.333-.2.345-.186.355-.17.365-.155.372-.141.378-.128.382-.116.386-.104.387-.092.387.642-.06.642-.062.643-.06.642-.061.642-.06.642-.062.643-.06.642-.061.642-.06.643-.062.642-.06.642-.061v-.273l.001-.068V77.63l-.001-.068-.001-.068-.001-.068-.002-.065zM176.77 76.508l-.16.755-.16.756-.161.755-.16.755-.161.755-.16.755-.161.755-.161.755-.16.756-.161.755-.16.755-.161.755H178.75l-.165-.755-.165-.755-.165-.755-.165-.756-.165-.755-.165-.755-.165-.755-.165-.755-.165-.755-.165-.755-.164-.756-.157-.717zM360.767 26.908l-.02-.256-.027-.256-.036-.258-.046-.256-.056-.255-.067-.252-.078-.247-.09-.242-.103-.236-.116-.228-.13-.22-.144-.21-.06-.074-.064-.073-.065-.07-.068-.07-.07-.067-.07-.066-.074-.063-.075-.06-.077-.059-.079-.055-.08-.053-.082-.05-.214-.094-.225-.074-.233-.053-.24-.034-.244-.014-.245.003-.246.022-.243.039-.239.055-.232.071-.224.087-.213.1-.149.094-.146.099-.142.105-.138.11-.135.115-.13.12-.127.124-.123.128-.119.132-.115.134-.11.138-.107.14-.19.285-.179.294-.167.3-.156.308-.145.314-.135.318-.125.323-.115.327-.105.33-.097.331-.088.333-.08.335.643-.061.642-.06.642-.062.643-.06.642-.061.642-.06.643-.062.642-.06.642-.061.643-.06.642-.062.642-.06v-.627l-.002-.078-.002-.079-.003-.078-.002-.074zM260.74 27.03l-.015-.246-.022-.248-.03-.249-.039-.247-.048-.247-.057-.244-.067-.24-.078-.238-.089-.231-.1-.227-.113-.219-.126-.212-.067-.094-.07-.092-.073-.09-.077-.087-.079-.085-.082-.082-.086-.08-.088-.075-.09-.072-.094-.068-.096-.065-.098-.06-.214-.094-.225-.074-.233-.053-.24-.034-.243-.014-.246.003-.246.022-.243.039-.239.055-.232.071-.224.087-.212.1-.242.156-.23.17-.222.186-.21.198-.202.211-.19.221-.182.23-.17.239-.162.244-.152.25-.142.253-.133.256-.091.199-.088.2-.083.203-.08.204-.076.206-.073.207-.069.208-.065.21-.062.21-.06.211-.055.212-.053.213-.002.011-.003.012-.003.012-.002.011-.003.012-.003.012-.002.011-.003.012-.002.012-.003.011-.003.012-.002.012.642-.061.642-.06.643-.062.642-.06.642-.061.643-.06.642-.062.642-.06.642-.061.643-.06.642-.062.642-.06v-.273l.001-.068V27.303l-.001-.068-.001-.068-.001-.068-.002-.065zM155.459 23.098l-.134-.297-.146-.278-.16-.26-.172-.241-.186-.225-.201-.209-.216-.192-.231-.176-.247-.161-.264-.147-.28-.132-.298-.118-.299-.085-.304-.069-.31-.051-.312-.035-.315-.02-.316-.004-.317.01-.316.024-.314.039-.311.05-.308.064-.302.076-.035.807-.034.807-.035.807-.035.808-.035.807-.034.807-.035.807-.035.807-.034.808-.035.807-.035.807-.035.807.308-.002.309-.008.309-.013.309-.02.308-.027.308-.035.306-.043.304-.052.302-.062.3-.072.295-.083.292-.095.32-.13.315-.15.31-.168.302-.186.292-.204.28-.22.264-.236.248-.25.228-.266.206-.28.182-.292.157-.305.112-.32.089-.328.065-.337.042-.342.02-.347v-.349l-.02-.348-.041-.347-.06-.343-.078-.338-.095-.33-.106-.305zM119.232 27.88l-.143-.337-.168-.333-.19-.324-.212-.314-.233-.301-.251-.286-.27-.267-.285-.247-.3-.224-.314-.198-.326-.17-.337-.139-.42-.11-.423-.076-.424-.04-.423-.005-.42.03-.417.065-.41.098-.401.132-.392.166-.38.198-.366.231-.35.263-.159.145-.153.152-.147.158-.14.165-.135.17-.128.175-.122.18-.114.185-.107.189-.1.192-.093.195-.084.197-.224.738-.139.766-.054.784.028.789.11.782.192.762.27.73.35.688.426.632.502.563.577.484.65.392.477.179.488.124.495.07.497.018.496-.035.492-.086.482-.136.47-.185.453-.234.432-.282.409-.329.38-.374.17-.21.162-.218.151-.227.142-.233.132-.24.122-.246.112-.25.102-.255.091-.258.082-.261.07-.263.06-.264.05-.318.035-.32.021-.323.007-.324-.006-.325-.02-.325-.035-.324-.047-.322-.061-.318-.074-.315-.087-.31-.096-.29z"/></g></svg>